<!-- <svg  data-name="Layer 1" xmlns="http://www.w3.org/2000/svg" viewBox="0 0 1200 120" preserveAspectRatio="none" ><path  d="M321.39,56.44c58-10.79,114.16-30.13,172-41.86,82.39-16.72,168.19-17.73,250.45-.39C823.78,31,906.67,72,985.66,92.83c70.05,18.48,146.53,26.09,214.34,3V0H0V27.35A600.21,600.21,0,0,0,321.39,56.44Z" class="shape-fill" fill="#FFFFFF" fill-opacity="1"></path></svg> -->


<svg xmlns="http://www.w3.org/2000/svg" viewBox="0 0 1440 320"><path fill="#5000ca" fill-opacity="0.5" d="M0,160L34.3,176C68.6,192,137,224,206,245.3C274.3,267,343,277,411,240C480,203,549,117,617,96C685.7,75,754,117,823,154.7C891.4,192,960,224,1029,208C1097.1,192,1166,128,1234,106.7C1302.9,85,1371,107,1406,117.3L1440,128L1440,320L1405.7,320C1371.4,320,1303,320,1234,320C1165.7,320,1097,320,1029,320C960,320,891,320,823,320C754.3,320,686,320,617,320C548.6,320,480,320,411,320C342.9,320,274,320,206,320C137.1,320,69,320,34,320L0,320Z"></path></svg>